# AST/ASF file generated using VICON BodyLanguage
# -----------------------------------------------
:version 1.10
:name VICON
:units
  mass 1.0
  length 0.45
  angle deg
:documentation
   .ast/.asf automatically generated from VICON data using
   VICON BodyBuilder and BodyLanguage model FoxedUp or BRILLIANT.MOD
:root
   order TX TY TZ RX RY RZ
   axis XYZ
   position 0 0 0  
   orientation 0 0 0 
:bonedata
  begin
     id 1 
     name lhipjoint
     direction 0.700308 -0.549349 0.455834 
     length 2.59063 
     axis 0 0 0  XYZ
  end
  begin
     id 2 
     name lfemur
     direction 0.34202 -0.939693 0  
     length 6.31066  
     axis 0 0 20  XYZ
    dof rx ry rz
    limits (-160.0 20.0)
           (-70.0 70.0)
           (-60.0 70.0)
  end
  begin
     id 3 
     name ltibia
     direction 0.34202 -0.939693 0   
     length 7.36093   
     axis 0 0 20   XYZ
    dof rx
    limits (-10.0 170.0)
  end
  begin
     id 4 
     name lfoot
     direction 0.0905332 -0.248738 0.96433   
     length 2.0233   
     axis -90 7.62852e-016 20   XYZ
    dof rx rz
    limits (-45.0 90.0)
           (-70.0 20.0)
  end
  begin
     id 5 
     name ltoes
     direction 1.53573e-011 -4.21855e-011 1   
     length 1.01524   
     axis -90 7.62852e-016 20   XYZ
    dof rx
    limits (-90.0 20.0)
  end
  begin
     id 6 
     name rhipjoint
     direction -0.61416 -0.607328 0.503944   
     length 2.34332  
     axis 0 0 0  XYZ 
  end
  begin
     id 7 
     name rfemur
     direction -0.34202 -0.939693 0   
     length 6.58548   
     axis 0 0 -20   XYZ
    dof rx ry rz
    limits (-160.0 20.0)
           (-70.0 70.0)
           (-70.0 60.0)
  end
  begin
     id 8 
     name rtibia
     direction -0.34202 -0.939693 0   
     length 7.20707   
     axis 0 0 -20   XYZ
    dof rx
    limits (-10.0 170.0)
 end
 begin
     id 9 
     name rfoot
     direction -0.136772 -0.375778 0.916561   
     length 1.92184  
     axis -90 -7.62852e-016 -20   XYZ
    dof rx rz
    limits (-45.0 90.0)
           (-20.0 70.0)
  end
  begin
     id 10 
     name rtoes
     direction -1.53535e-011 -4.21828e-011 1   
     length 0.951089   
     axis -90 -7.62852e-016 -20   XYZ
    dof rx
    limits (-90.0 20.0)
  end
  begin
     id 11 
     name lowerback
     direction -0.0444974 0.988086 -0.147332   
     length 1.9609   
     axis 0 0 0   XYZ
    dof rx ry rz
    limits (-20.0 45.0)
           (-30.0 30.0)
           (-30.0 30.0)
  end
  begin
     id 12 
     name upperback
     direction 0.00613146 0.999513 0.0306081   
     length 1.94944   
     axis 0 0 0   XYZ
    dof rx ry rz
    limits (-20.0 45.0)
           (-30.0 30.0)
           (-30.0 30.0)
  end
  begin
     id 13 
     name thorax
     direction 0.0254621 0.994518 0.101418   
     length 2.0119   
     axis 0 0 0   XYZ
    dof rx ry rz
    limits (-20.0 45.0)
           (-30.0 30.0)
           (-30.0 30.0)
  end
  begin
     id 14 
     name lowerneck
     direction 0.0168698 0.977854 0.208608   
     length 1.6375   
     axis 0 0 0   XYZ
    dof rx ry rz
    limits (-20.0 45.0)
           (-30.0 30.0)
           (-30.0 30.0)
  end
  begin
     id 15 
     name upperneck
     direction -0.0283988 0.989338 -0.142843   
     length 1.6851   
     axis 0 0 0   XYZ
    dof rx ry rz
    limits (-20.0 45.0)
           (-30.0 30.0)
           (-30.0 30.0)
  end
  begin
     id 16
     name head
     direction -0.0129422 0.99741 -0.0707489  
     length 1.69029  
     axis 0 0 0   XYZ
    dof rx ry rz
    limits (-20.0 45.0)
           (-30.0 30.0)
           (-30.0 30.0)
  end
  begin
     id 17 
     name lclavicle
     direction 0.820295 0.564628 -0.0911715  
     length 3.16484  
     axis 0 0 0   XYZ
    dof ry rz
    limits (-20.0 10.0)
           (0.0 20.0)
  end
  begin
     id 18 
     name lhumerus
     direction 1 -4.48969e-011 1.00186e-027   
     length 5.17853   
     axis 180 -30 -90   XYZ
    dof rx ry rz
    limits (-60.0 90.0)
           (-90.0 90.0)
           (-90.0 90.0)
  end
  begin
     id 19
     name lradius
     direction 1 -4.48966e-011 -1.52922e-027   
     length 3.40399   
     axis 180 -30 -90   XYZ
    dof rx
    limits (-10.0 170.0)
  end
  begin
     id 20
     name lwrist
     direction 1 -4.48981e-011 -3.80893e-027   
     length 1.70199   
     axis 1.1049e-015 90 90   XYZ
    dof ry
    limits (-180.0 0.0)
 end
  begin
     id 21 
     name lhand
     direction 1 -4.48957e-011 -7.61786e-027   
     length 0.708964   
     axis 4.86085e-015 90 90   XYZ
    dof rx rz
    limits (-90.0 90.0)
           (-45.0 45.0)
  end
  begin
     id 22 
     name lfingers
     direction 1 -4.48929e-011 -1.52357e-026   
     length 0.571585   
     axis 9.7217e-015 90 90   XYZ
    dof rx
    limits (0.0 90.0)
  end
  begin
     id 23
     name lthumb
     direction 0.707107 -6.34905e-011 0.707107   
     length 0.820685   
     axis -90 45 2.85299e-015   XYZ
    dof rx rz
    limits (-45.0 45.0)
           (-45.0 45.0)
  end
  begin
     id 24 
     name rclavicle
     direction -0.858602 0.463947 -0.218075   
     length 3.35137  
     axis 0 0 0   XYZ 
    dof ry rz
    limits (-10.0 20.0)
           (-20.0 0.0)
  end
  begin
     id 25 
     name rhumerus
     direction -1 -4.48969e-011 -1.98511e-027  
     length 5.42351   
     axis 180 30 90   XYZ
    dof rx ry rz
    limits (-90.0 60.0)
           (-90.0 90.0)
           (-90.0 90.0)
  end
  begin
     id 26 
     name rradius
     direction -1 -4.48961e-011 -2.82624e-027   
     length 3.42066   
     axis 180 30 90   XYZ
    dof rx
    limits (-10.0 170.0)
  end
  begin
     id 27 
     name rwrist
     direction -1 -4.48966e-011 -3.80893e-027   
     length 1.71033   
     axis 1.1049e-015 -90 -90   XYZ
    dof ry
    limits (-180.0 0.0)
  end
  begin
     id 28
     name rhand
     direction -1 -4.48964e-011 -7.61786e-027   
     length 0.743608   
     axis 4.86085e-015 -90 -90   XYZ
    dof rx rz
    limits (-90.0 90.0)
           (-45.0 45.0)
  end
  begin
     id 29
     name rfingers
     direction -1 -4.48961e-011 -1.52357e-026   
     length 0.599516   
     axis 9.7217e-015 -90 -90   XYZ
    dof rx
    limits (0.0 90.0)
  end
  begin
     id 30
     name rthumb
     direction -0.707107 -6.34913e-011 0.707107   
     length 0.860789   
     axis -90 -45 -2.85299e-015   XYZ
    dof rx rz
    limits (-45.0 45.0)
           (-45.0 45.0)
  end
:hierarchy
  begin
    root lhipjoint rhipjoint lowerback
    lhipjoint lfemur
    lfemur ltibia
    ltibia lfoot
    lfoot ltoes
    rhipjoint rfemur
    rfemur rtibia
    rtibia rfoot
    rfoot rtoes
    lowerback upperback
    upperback thorax
    thorax lowerneck lclavicle rclavicle
    lowerneck upperneck
    upperneck head
    lclavicle lhumerus
    lhumerus lradius
    lradius lwrist
    lwrist lhand lthumb
    lhand lfingers
    rclavicle rhumerus
    rhumerus rradius
    rradius rwrist
    rwrist rhand rthumb
    rhand rfingers
  end

#!OML:ASF E:\mmandel\Project 1\Capture day 1\Session 2\Subject.ASF
:FULLY-SPECIFIED
:DEGREES
1559
root 6.06383 15.235 2.75882 845.573 80.3892 826.506
lowerback 17.1243 -0.0279372 -1.41382
upperback 1.73017 -0.1224 0.834425
thorax -7.74189 0.0467936 1.72122
lowerneck -17.6873 -0.247613 2.34885
upperneck 10.7834 0.304432 -7.69204
head 6.18367 -0.37615 -2.82274
rclavicle -3.18055e-015 -1.90833e-014
rhumerus -14.0384 16.519 -78.3299
rradius 41.4683
rwrist -21.6504
rhand -13.7068 24.8381
rfingers 7.12502
rthumb 12.4118 -4.77341
lclavicle -3.18055e-015 -1.90833e-014
lhumerus -23.8839 -10.1747 76.8451
lradius 70.6918
lwrist 35.524
lhand -14.0736 -30.3693
lfingers 7.12502
lthumb 12.0582 -0.736699
rfemur -52.8891 -2.40408 10.7138
rtibia 63.863
rfoot -32.9648 -7.5978
rtoes -5.06002
lfemur -51.7115 16.6791 -20.8481
ltibia 50.5299
lfoot -11.4029 -4.28411
ltoes -0.194272
1560
root 6.0938 15.2369 2.75021 845.404 80.5429 826.312
lowerback 17.1264 0.00461811 -1.48797
upperback 1.71969 -0.0911126 0.87027
thorax -7.75544 0.0648152 1.79473
lowerneck -17.9175 -0.0632456 2.32766
upperneck 11.0121 0.584766 -7.76773
head 6.31101 -0.255519 -2.8205
rclavicle -6.36111e-015 -4.45278e-014
rhumerus -14.1244 17.0539 -78.3871
rradius 41.2223
rwrist -21.7013
rhand -13.5132 24.7719
rfingers 7.12502
rthumb 12.5984 -4.82817
lclavicle -6.36111e-015 -4.45278e-014
lhumerus -23.7415 -10.4055 76.7388
lradius 71.1989
lwrist 36.0354
lhand -14.093 -30.4008
lfingers 7.12502
lthumb 12.0394 -0.767066
rfemur -52.7337 -2.37114 10.8577
rtibia 63.7858
rfoot -33.0786 -7.63139
rtoes -5.3586
lfemur -51.8491 16.3404 -20.6673
ltibia 49.4203
lfoot -11.4413 -4.10599
ltoes -0.543211
1561
root 6.11816 15.2391 2.73836 844.961 80.6449 825.828
lowerback 17.1182 0.0252205 -1.5976
upperback 1.71424 -0.085219 0.868746
thorax -7.7568 0.0709685 1.85412
lowerneck -17.6211 -0.0870938 2.04881
upperneck 10.7461 0.557317 -7.46334
head 6.17321 -0.24588 -2.67257
rclavicle -7.95139e-016 -6.99722e-014
rhumerus -14.2868 17.6244 -78.4801
rradius 41.1876
rwrist -21.8331
rhand -13.5583 25.0169
rfingers 7.12502
rthumb 12.555 -4.58584
lclavicle -7.95139e-016 -6.99722e-014
lhumerus -23.6407 -10.5713 76.6079
lradius 71.8017
lwrist 36.4122
lhand -14.061 -30.4381
lfingers 7.12502
lthumb 12.0703 -0.806213
rfemur -52.6207 -2.33753 10.9025
rtibia 63.6955
rfoot -33.1466 -7.6443
rtoes -5.62922
lfemur -51.9819 15.8884 -20.5071
ltibia 48.3041
lfoot -11.3925 -3.81259
ltoes -0.378992
1562
root 6.14253 15.2414 2.72654 844.465 80.7675 825.339
lowerback 17.2318 0.055849 -1.65929
upperback 1.6845 -0.0627508 0.822928
thorax -7.85261 0.0840539 1.83572
lowerneck -17.4636 -0.132722 1.99247
upperneck 10.7727 0.489981 -7.33429
head 6.15118 -0.268436 -2.62738
rclavicle 7.95139e-016 7.95139e-015
rhumerus -14.5827 18.1362 -78.6755
rradius 41.2216
rwrist -21.9631
rhand -13.6663 25.0828
rfingers 7.12502
rthumb 12.4508 -4.52638
lclavicle 7.95139e-016 7.95139e-015
lhumerus -23.5244 -10.727 76.4259
lradius 72.3849
lwrist 36.4759
lhand -13.9504 -30.3213
lfingers 7.12502
lthumb 12.1769 -0.695753
rfemur -52.4892 -2.25821 10.9623
rtibia 63.5989
rfoot -33.164 -7.70748
rtoes -5.85975
lfemur -52.0941 15.5159 -20.324
ltibia 47.2044
lfoot -11.3299 -3.75763
ltoes -0.600524
1563
root 6.16958 15.2452 2.71412 844.44 81.0144 825.41
lowerback 17.3798 0.0473971 -1.55781
upperback 1.69843 -0.0575172 0.792824
thorax -7.91959 0.0840319 1.74514
lowerneck -17.6763 -0.0751551 2.25472
upperneck 11.1107 0.555505 -7.54303
head 6.29913 -0.252347 -2.73769
rclavicle -2.22639e-014 -1.01778e-013
rhumerus -14.7744 18.6737 -78.9397
rradius 41.1276
rwrist -22.0429
rhand -13.7438 25.0562
rfingers 7.12502
rthumb 12.3761 -4.55748
lclavicle -2.22639e-014 -1.01778e-013
lhumerus -23.2877 -10.8259 76.1704
lradius 72.8199
lwrist 36.476
lhand -13.912 -30.2007
lfingers 7.12502
lthumb 12.214 -0.577271
rfemur -52.2298 -2.14944 11.1859
rtibia 63.4879
rfoot -33.2141 -7.7556
rtoes -5.92708
lfemur -52.1816 15.3062 -20.0086
ltibia 46.1355
lfoot -11.1687 -3.85343
ltoes -0.0897756
1564
root 6.19862 15.2479 2.69614 844.09 81.2768 825.15
lowerback 17.3901 0.0346656 -1.45178
upperback 1.78476 -0.0512111 0.784969
thorax -7.83209 0.083344 1.67425
lowerneck -17.6998 0.0657009 2.56135
upperneck 11.0802 0.737295 -7.96478
head 6.30681 -0.18477 -2.90586
rclavicle 3.18055e-015 5.56597e-014
rhumerus -14.8796 19.1906 -79.1079
rradius 41.1735
rwrist -22.0668
rhand -13.8161 25.0575
rfingers 7.12502
rthumb 12.3064 -4.56038
lclavicle 3.18055e-015 5.56597e-014
lhumerus -22.8661 -10.8681 75.9405
lradius 73.075
lwrist 36.5254
lhand -14.0117 -30.1869
lfingers 7.12502
lthumb 12.1178 -0.557802
rfemur -51.9965 -2.02922 11.3725
rtibia 63.393
rfoot -33.266 -7.77645
rtoes -6.10393
lfemur -52.2053 14.9954 -19.6399
ltibia 45.1005
lfoot -11.0646 -3.63922
ltoes 0.430254
1565
root 6.22943 15.2464 2.67651 843.469 81.4072 824.566
lowerback 17.3752 0.0458655 -1.48875
upperback 1.82838 -0.0445175 0.754016
thorax -7.7768 0.0869136 1.66004
lowerneck -17.6478 0.116264 2.72019
upperneck 10.9144 0.809856 -8.28708
head 6.25248 -0.164014 -3.02627
rclavicle 0 1.59028e-015
rhumerus -15.1515 19.4877 -79.2554
rradius 41.3386
rwrist -21.9527
rhand -13.8801 25.2063
rfingers 7.12502
rthumb 12.2447 -4.41521
lclavicle 0 1.59028e-015
lhumerus -22.4241 -10.9925 75.7434
lradius 73.2852
lwrist 36.4144
lhand -14.2082 -30.2975
lfingers 7.12502
lthumb 11.9284 -0.657381
rfemur -51.83 -1.93724 11.397
rtibia 63.3303
rfoot -33.3174 -7.80682
rtoes -6.3257
lfemur -52.1938 14.5486 -19.3749
ltibia 44.1127
lfoot -10.9923 -3.3918
ltoes -0.154754
1566
root 6.25878 15.2426 2.65731 843.07 81.4755 824.217
lowerback 17.4702 0.0436842 -1.56159
upperback 1.83843 -0.0669717 0.689614
thorax -7.81724 0.0781313 1.63805
lowerneck -17.9798 0.171565 2.78862
upperneck 11.1453 0.886663 -8.32837
head 6.38661 -0.138574 -3.04952
rclavicle 1.59028e-015 -6.36111e-015
rhumerus -15.3177 19.6414 -79.4736
rradius 41.1842
rwrist -21.8066
rhand -13.905 25.6586
rfingers 7.12502
rthumb 12.2207 -3.96442
lclavicle 1.59028e-015 -6.36111e-015
lhumerus -22.0642 -11.1267 75.5216
lradius 73.555
lwrist 36.2034
lhand -14.4636 -30.5254
lfingers 7.12502
lthumb 11.6821 -0.871065
rfemur -51.6237 -1.90268 11.3864
rtibia 63.2869
rfoot -33.4652 -7.80505
rtoes -6.5988
lfemur -52.1723 14.0856 -19.1302
ltibia 43.1742
lfoot -10.8132 -3.3676
ltoes -0.0370048
1567
root 6.28664 15.2375 2.63876 842.257 81.7917 823.411
lowerback 17.4841 0.105439 -1.50308
upperback 1.8643 0.0230904 0.657037
thorax -7.80044 0.118915 1.54821
lowerneck -18.2623 0.443488 2.96175
upperneck 11.431 1.24755 -8.45475
head 6.54932 0.0214533 -3.08759
rclavicle 2.78299e-014 4.77083e-014
rhumerus -15.3525 19.7446 -79.7178
rradius 40.8836
rwrist -21.6745
rhand -13.9724 26.0743
rfingers 7.12502
rthumb 12.1557 -3.55257
lclavicle 2.78299e-014 4.77083e-014
lhumerus -21.6945 -11.3507 75.2376
lradius 73.8128
lwrist 36.2414
lhand -14.6514 -30.7706
lfingers 7.12502
lthumb 11.501 -1.10615
rfemur -51.5102 -1.67319 11.5841
rtibia 63.2336
rfoot -33.5587 -7.89955
rtoes -7.02914
lfemur -52.1733 13.7058 -18.5806
ltibia 42.2562
lfoot -10.7278 -3.20503
ltoes 0.618899
